<svg xmlns="http://www.w3.org/2000/svg" xmlns:xlink="http://www.w3.org/1999/xlink" id="Layer_1" width="502" height="217" x="0" y="0" enable-background="new 0 0 502 217" version="1.1" viewBox="0 0 502 217" xml:space="preserve"><defs><style type="text/css">text{font-family:Helvetica,Verdana,ArialUnicodeMS,san-serif}</style></defs><g><desc>PS 3.5 Part 5: Data Structures and Encoding</desc></g><g><rect width="500" height="215" x="1" y="1" fill="#F5EED6"/><g><rect width="42.823" height="36" x="105.245" y="124.304" fill="#86B2D8" stroke="#000"/><rect width="44.957" height="36" x="60.288" y="124.304" fill="#B2CEE7" stroke="#000"/><g><text font-size="10" transform="matrix(1 0 0 1 74.1509 145.3613)">Tag</text></g><g><text font-size="10" transform="matrix(1 0 0 1 119.9214 145.3613)">VR</text></g><rect width="42.823" height="36" x="148.245" y="124.304" fill="#B2CEE7" stroke="#000"/><g><text transform="matrix(1 0 0 1 154.8271 138.7617)"><tspan x="0" y="0" font-size="10">Value</tspan><tspan x="0" y="10.008" font-size="10">Length</tspan></text></g><rect width="193.957" height="36" x="191.068" y="124.304" fill="#B2CEE7" stroke="#000"/><g><text font-size="10" transform="matrix(1 0 0 1 263.791 145.3613)">Value Field</text></g><line x1="102.554" x2="60.142" y1="124.304" y2="159.846" fill="none" stroke="#9D9FA2" stroke-dasharray="3 3" stroke-linecap="square" stroke-linejoin="bevel" stroke-width=".5"/><line x1="171.833" x2="102.554" y1="66.245" y2="124.304" fill="none" stroke="#000" stroke-dasharray="4" stroke-linecap="square" stroke-linejoin="bevel"/><rect width="54" height="36" x="117.858" y="30.533" fill="#CCDEF0" stroke="#000"/><g><text transform="matrix(1 0 0 1 134.2969 44.9922)"><tspan x="0" y="0" font-size="10">Data</tspan><tspan x="-7.781" y="10.008" font-size="10">Element</tspan></text></g><rect width="54" height="36" x="63.857" y="30.533" fill="#CCDEF0" stroke="#000"/><g><text transform="matrix(1 0 0 1 80.2964 44.9922)"><tspan x="0" y="0" font-size="10">Data</tspan><tspan x="-7.781" y="10.008" font-size="10">Element</tspan></text></g><rect width="54" height="36" x="171.858" y="30.533" fill="#B2CEE7" stroke="#000"/><g><text transform="matrix(1 0 0 1 188.2969 44.9922)"><tspan x="0" y="0" font-size="10">Data</tspan><tspan x="-7.781" y="10.008" font-size="10">Element</tspan></text></g><rect width="54" height="36" x="225.858" y="30.533" fill="#CCDEF0" stroke="#000"/><g><text transform="matrix(1 0 0 1 242.2969 44.9922)"><tspan x="0" y="0" font-size="10">Data</tspan><tspan x="-7.781" y="10.008" font-size="10">Element</tspan></text></g><rect width="54" height="36" x="279.858" y="30.533" fill="#CCDEF0" stroke="#000"/><g><text font-size="10" transform="matrix(1 0 0 1 302.6914 51.5923)">...</text></g><rect width="54" height="36" x="333.858" y="30.533" fill="#CCDEF0" stroke="#000"/><g><text transform="matrix(1 0 0 1 350.2969 44.9922)"><tspan x="0" y="0" font-size="10">Data</tspan><tspan x="-7.781" y="10.008" font-size="10">Element</tspan></text></g><rect width="54" height="36" x="387.858" y="30.533" fill="#CCDEF0" stroke="#000"/><g><text transform="matrix(1 0 0 1 404.2969 44.9922)"><tspan x="0" y="0" font-size="10">Data</tspan><tspan x="-7.781" y="10.008" font-size="10">Element</tspan></text></g><g><text font-size="12" transform="matrix(1 0 0 1 63.8853 21.5776)">Data Set</text></g><line x1="287.271" x2="384.806" y1="66.533" y2="124.134" fill="none" stroke="#000" stroke-dasharray="3.992" stroke-linecap="square" stroke-linejoin="bevel"/><line x1="226.312" x2="287.271" y1="30.533" y2="66.533" fill="none" stroke="#9D9FA2" stroke-dasharray="3 3" stroke-linecap="square" stroke-linejoin="bevel" stroke-width=".5"/><line x1="128.857" x2="60.175" y1="66.533" y2="124.062" fill="none" stroke="#000" stroke-dasharray="3.989" stroke-linecap="square" stroke-linejoin="bevel"/><line x1="171.924" x2="128.857" y1="30.461" y2="66.533" fill="none" stroke="#9D9FA2" stroke-dasharray="3 3" stroke-linecap="square" stroke-linejoin="bevel" stroke-width=".5"/><line x1="324.421" x2="384.729" y1="124.305" y2="159.846" fill="none" stroke="#9D9FA2" stroke-dasharray="3 3" stroke-linecap="square" stroke-linejoin="bevel" stroke-width=".5"/><line x1="225.901" x2="324.421" y1="66.245" y2="124.305" fill="none" stroke="#000" stroke-dasharray="4" stroke-linecap="square" stroke-linejoin="bevel"/><polyline fill="none" stroke="#010101" stroke-miterlimit="1" points="157.701 184.833 146.068 184.833 133.229 154.487"/><g><text transform="matrix(1 0 0 1 162.5586 186.7949)"><tspan x="0" y="0" font-size="10">optional field - dependent on</tspan><tspan x="3.071" y="10.473" font-size="10">negotiated Transfer Syntax</tspan></text></g><g><text font-size="10" transform="matrix(1 0 0 1 225.5474 25.3018)">order of transmission</text></g><g><g><line x1="325.627" x2="399.487" y1="22.666" y2="22.666" fill="#4F8ABE" stroke="#005695" stroke-miterlimit="1"/><g><g><line x1="139.798" x2="215.03" y1="22.666" y2="22.666" fill="#4F8ABE" stroke="#005695" stroke-miterlimit="1"/><path fill="#005695" d="M214.419,22.666l-1.314-2.161l0.073-0.05l3.525,1.4c1.228,0.271,2.456,0.54,3.685,0.811 c-1.229,0.271-2.457,0.54-3.685,0.811l-3.525,1.4l-0.073-0.037L214.419,22.666z"/></g></g><path fill="#005695" d="M398.875,22.666l-1.314-2.161l0.074-0.05l3.524,1.4c1.229,0.271,2.457,0.54,3.685,0.811 c-1.228,0.271-2.456,0.54-3.685,0.811l-3.524,1.4l-0.074-0.037L398.875,22.666z"/></g></g></g></g></svg>